# xmcd
# Track frame offsets:
# 150
# 17904
# 32293
# 42404
# 60577
# 77016
# 95712
# 113982
# 133620
# 149830
# 169523
# 182767
# 192963
#
# Disc length: 2823 seconds
# Revision: 0
# Processed by: cddbd v1.4PL0 Copyright (c) Steve Scherf et al.
# Submitted via: VisiTrax 2.9.5.181 - For more info visit www.synapsa.com
#
DISCID=b20b050d
DTITLE=Bellamy Brothers - Sons Of Beaches
DYEAR=1900
DGENRE=Misc
TTITLE0=Shine Them Buckles
TTITLE1=Big Hair
TTITLE2=Pit Bulls and Chainsaws
TTITLE3=Blue Rodeo
TTITLE4=Twang Town
TTITLE5=She's Awesome
TTITLE6=Old Hippy(The Sequel)
TTITLE7=Native American
TTITLE8=Feel Free.
TTITLE9=We Dared The Lightning
TTITLE10=Elvis, Marilyn And James Dean
TTITLE11=Gotta Get A Little Crazy
TTITLE12=Jesus Is Coming
EXTD=
EXTT0=
EXTT1=
EXTT2=
EXTT3=
EXTT4=
EXTT5=
EXTT6=
EXTT7=
EXTT8=
EXTT9=
EXTT10=
EXTT11=
EXTT12=
PLAYORDER=
